# xmcd CD database file
#
# Track frame offsets:
#	167
#	14777
#	35822
#	48347
#	65990
#	89120
#	110297
#	127425
#	138595
#	149712
#	160445
#	181175
#
# Disc length: 2757 seconds
#
# Revision: 0
# Processed by: cddbd v1.5.1PL2 Copyright (c) Steve Scherf et al.
# Submitted via: CDex 1.51
#
DISCID=ca0ac30c
DTITLE=Michael Messer - Diving Duck
DYEAR=1988
DGENRE=Blues
TTITLE0=Wild Canadian Swan
TTITLE1=Write me a few short lines
TTITLE2=Hum dum dinger from Dingersville
TTITLE3=Rollin' and tumblin'
TTITLE4=Secret to a long life
TTITLE5=Minnetonka Stomp
TTITLE6=If you were the river
TTITLE7=Hula girl
TTITLE8=Milk cow blues
TTITLE9=Shouldn't do that
TTITLE10=Brownsville blues
TTITLE11=Death letter
EXTD=YEAR: 1988
EXTT0=
EXTT1=
EXTT2=
EXTT3=
EXTT4=
EXTT5=
EXTT6=
EXTT7=
EXTT8=
EXTT9=
EXTT10=
EXTT11=
PLAYORDER=
